<svg width="155" height="191" viewBox="0 0 155 191" fill="none" xmlns="http://www.w3.org/2000/svg">
<path opacity="0.058524" fill-rule="evenodd" clip-rule="evenodd" d="M106.636 189.306C132.965 178.414 155 140.515 155 94.3456C155 48.176 140.615 0 101.955 0C63.2947 0 0 47.1961 0 93.3657C0 139.535 80.3078 200.197 106.636 189.306Z" fill="#E36262"/>
<path fill-rule="evenodd" clip-rule="evenodd" d="M111.163 79.753C111.189 79.7908 111.214 79.8259 111.237 79.867C111.349 80.0595 111.432 80.2728 111.432 80.5123C111.432 80.7282 111.37 80.9311 111.266 81.1237C111.244 81.1622 111.213 81.198 111.183 81.2337C111.162 81.2583 111.141 81.2829 111.122 81.3084C111.031 81.4333 110.938 81.5555 110.805 81.67C110.794 81.6799 110.786 81.6903 110.779 81.7005C110.771 81.7119 110.763 81.7229 110.75 81.7324L90.6191 101.864V115.782C100.994 117.052 101.026 118.597 101.026 119.537C101.026 123.252 91.272 123.439 89.3182 123.439C87.3644 123.439 77.6109 123.252 77.6109 119.537C77.6109 118.6 77.6421 117.052 88.0173 115.782V101.864L67.886 81.7324C67.8743 81.7233 67.8665 81.7129 67.8587 81.7025C67.8509 81.6921 67.8431 81.6817 67.8314 81.6726C67.6987 81.5582 67.605 81.4333 67.5139 81.311C67.4968 81.2881 67.4776 81.2656 67.4584 81.2432C67.4252 81.2044 67.3923 81.1658 67.3709 81.1262C67.2669 80.9311 67.2044 80.7282 67.2044 80.5122C67.2044 80.2806 67.2825 80.0648 67.4021 79.8566C67.4231 79.8215 67.4477 79.7924 67.4726 79.7628C67.4847 79.7485 67.4969 79.734 67.5088 79.7187C68.5599 78.2695 72.5014 77.4604 77.421 77.0363L74.0519 72.3066L64.0226 78.9928C63.8041 79.1385 63.5543 79.2113 63.302 79.2113C63.0237 79.2113 62.7453 79.1229 62.5111 78.946C62.0688 78.6078 61.892 78.0277 62.0662 77.4995L67.2695 61.8898C67.4491 61.359 67.9459 61 68.5053 61H86.7166C87.2916 61 87.7937 61.3746 87.9601 61.9237C88.1266 62.4726 87.9159 63.0657 87.4372 63.3832L76.2191 70.8628L80.4675 76.8257C83.3578 76.6696 86.4148 76.6098 89.3182 76.6098H94.5215C95.2395 76.6098 95.8225 77.1926 95.8225 77.9106C95.8225 78.6287 95.2397 79.2115 94.5216 79.2115H89.3183C86.7531 79.2115 84.4169 79.2739 82.2783 79.3701L83.9486 81.7168C84.0854 81.7206 84.2205 81.7257 84.3564 81.7308C84.4994 81.7361 84.6434 81.7415 84.7915 81.7455C84.9637 81.7493 85.1328 81.7543 85.3031 81.7594C85.4826 81.7648 85.6634 81.7701 85.8504 81.7741C86.9638 81.7976 88.1138 81.8132 89.3183 81.8132C90.6555 81.8132 91.933 81.7976 93.1505 81.7585C93.4192 81.7534 93.6698 81.7438 93.9225 81.7341C94.0539 81.729 94.1859 81.724 94.3212 81.7195C95.1122 81.6961 95.9083 81.67 96.6445 81.6362C96.9075 81.6236 97.154 81.608 97.4 81.5925C97.5581 81.5825 97.7159 81.5726 97.8777 81.5634C98.0005 81.5564 98.1237 81.5495 98.2468 81.5425C98.7625 81.5135 99.2766 81.4846 99.7534 81.4489C100.056 81.4279 100.335 81.4028 100.615 81.3776C100.717 81.3683 100.82 81.3591 100.924 81.35L101.053 81.3392C101.537 81.2985 102.025 81.2574 102.464 81.2121C102.697 81.1874 102.91 81.1616 103.121 81.1361C103.244 81.1214 103.365 81.1067 103.489 81.0924C103.587 81.0808 103.684 81.0692 103.782 81.0578C104.118 81.018 104.45 80.9787 104.751 80.9363C104.992 80.9019 105.207 80.8674 105.421 80.833C105.482 80.8232 105.543 80.8134 105.604 80.8037C105.945 80.749 106.286 80.6944 106.58 80.6398C106.788 80.6002 106.967 80.5607 107.146 80.5212C107.18 80.5139 107.213 80.5066 107.246 80.4993C107.493 80.4446 107.738 80.39 107.938 80.3354C108.101 80.2916 108.23 80.2477 108.359 80.2039L108.386 80.1949C108.523 80.148 108.646 80.1012 108.745 80.057L109.213 79.5887C109.229 79.5723 109.251 79.5645 109.272 79.5567C109.292 79.5496 109.311 79.5424 109.327 79.5288C109.426 79.448 109.538 79.4012 109.66 79.3518L109.673 79.3467C109.785 79.3018 109.889 79.2604 110.009 79.2478C110.03 79.2465 110.048 79.2382 110.066 79.2299C110.087 79.2206 110.107 79.2113 110.131 79.2113C110.303 79.2113 110.467 79.2478 110.618 79.3102C110.62 79.3102 110.621 79.3099 110.623 79.3096C110.625 79.3091 110.627 79.3086 110.631 79.3102C110.633 79.3102 110.633 79.3128 110.633 79.3128C110.847 79.4012 111.013 79.5548 111.151 79.7368C111.155 79.7423 111.159 79.7477 111.163 79.753ZM79.2873 81.4824C79.4297 81.4918 79.5731 81.5013 79.7156 81.5112C79.9204 81.5255 80.1361 81.5373 80.352 81.5491C80.4515 81.5546 80.5511 81.56 80.6497 81.5657L79.211 79.5495C75.7326 79.7941 73.0504 80.1454 71.3983 80.507C71.443 80.5167 71.4876 80.5265 71.5327 80.5365C71.6686 80.5665 71.8078 80.5973 71.9603 80.6266C72.0108 80.6362 72.0603 80.6458 72.1098 80.6555C72.221 80.6771 72.3321 80.6986 72.4545 80.7202C72.8733 80.7932 73.3416 80.866 73.8386 80.9362C73.9095 80.9453 73.9725 80.9552 74.0377 80.9655C74.0851 80.973 74.1336 80.9807 74.1872 80.9883C74.822 81.0741 75.5219 81.1548 76.2711 81.2302C76.3551 81.238 76.4435 81.2458 76.5335 81.2538C76.6833 81.267 76.8377 81.2806 76.9839 81.2952C77.5381 81.3473 78.1104 81.3967 78.7192 81.4435C78.9033 81.457 79.0943 81.4696 79.2873 81.4824Z" fill="#E29898"/>
<path d="M110.131 68.8049C104.218 68.8049 99.2043 73.5087 98.4238 79.2114C103.018 78.9122 106.351 78.2383 107.53 77.9105C108.266 77.1716 109.091 76.6097 110.131 76.6097C110.649 76.6097 111.156 76.7112 111.632 76.9115C113.089 77.5125 114.034 78.9277 114.034 80.5121C114.034 81.7349 113.451 82.8848 112.397 83.7459L106.988 89.1599L106.72 90.4321C106.65 90.7703 106.715 91.1215 106.905 91.4103C107.092 91.6991 107.389 91.8994 107.725 91.9697C108.516 92.1362 109.322 92.2194 110.131 92.2194C116.586 92.2194 121.838 86.9668 121.838 80.5121C121.838 74.0575 116.586 68.8049 110.131 68.8049Z" fill="#E29898"/>
</svg>
