<svg width="128" height="113" viewBox="0 0 128 113" fill="none" xmlns="http://www.w3.org/2000/svg">
<path opacity="0.058524" fill-rule="evenodd" clip-rule="evenodd" d="M88.0604 112.239C109.802 105.781 127.999 83.3108 127.999 55.9371C127.999 28.5634 116.12 0 84.1943 0C52.2689 0 0 27.9824 0 55.3561C0 82.7298 66.3184 118.696 88.0604 112.239Z" fill="#E36262"/>
<path fill-rule="evenodd" clip-rule="evenodd" d="M95.2117 53.4006H96.8023C99.623 53.4006 101.918 55.6939 101.918 58.5127C101.918 61.3314 99.623 63.6247 96.8023 63.6247H95.0829C92.6328 74.1419 83.1951 82 71.9589 82C60.7227 82 51.2848 74.142 48.8348 63.6247H47.1155C44.2948 63.6247 42 61.3314 42 58.5127C42 55.6939 44.2948 53.4006 47.1155 53.4006H48.706C50.6447 44.0028 58.1375 36.6157 67.5814 34.8454C66.418 33.3254 65.736 31.3866 65.736 29.2946C65.736 25.2723 69.0041 22 73.0211 22C76.4284 22 79.2004 24.7754 79.2004 28.1867C79.2004 29.1562 78.4144 29.9421 77.445 29.9421C76.4755 29.9421 75.6896 29.1562 75.6896 28.1867C75.6896 26.7113 74.4925 25.5108 73.0211 25.5108C70.9399 25.5108 69.2468 27.2083 69.2468 29.2946C69.2468 31.7653 70.7476 33.8686 72.8966 34.4095C72.9586 34.4252 73.0188 34.4443 73.0774 34.4659C84.0226 34.9769 93.0547 42.9445 95.2117 53.4006ZM64.0333 58.1068C64.0306 59.0763 64.8144 59.8644 65.7838 59.8672C65.7856 59.8672 65.7872 59.8672 65.7887 59.867C66.7559 59.867 67.5413 59.0844 67.544 58.1166C67.5485 56.5576 66.9348 55.1757 65.8161 54.2254C64.8544 53.4086 63.5814 52.9565 62.2316 52.9527H62.2143C60.871 52.9527 59.6022 53.3971 58.6399 54.2051C57.5158 55.1489 56.8942 56.5274 56.8898 58.0864C56.8871 59.0558 57.6707 59.844 58.6402 59.8468C59.6107 59.8527 60.3979 59.0659 60.4006 58.0965C60.4013 57.8234 60.4923 56.4636 62.2123 56.4636H62.2216C63.9505 56.4685 64.0342 57.8333 64.0333 58.1068ZM71.9589 75.0074C68.8594 75.0074 66.3377 72.4875 66.3377 69.3899C66.3377 68.4204 67.1237 67.6345 68.0931 67.6345C69.0626 67.6345 69.8485 68.4204 69.8485 69.3899C69.8485 70.5515 70.7951 71.4966 71.9589 71.4966C73.1226 71.4966 74.0692 70.5515 74.0692 69.3899C74.0692 68.4204 74.8552 67.6345 75.8246 67.6345C76.7941 67.6345 77.58 68.4204 77.58 69.3899C77.5799 72.4875 75.0583 75.0074 71.9589 75.0074ZM85.2673 59.8672H85.2724C86.2395 59.8672 87.025 59.0845 87.0277 58.1166C87.0331 56.2267 86.1346 54.6188 84.5624 53.7051C82.8344 52.7009 80.5974 52.6946 78.8638 53.689C77.2864 54.5937 76.3787 56.1965 76.3734 58.0864C76.3707 59.056 77.1544 59.844 78.1238 59.8468H78.1289C79.096 59.8468 79.8815 59.0643 79.8842 58.0965C79.886 57.4592 80.1236 57.0138 80.6105 56.7345C81.2454 56.3703 82.1656 56.373 82.7984 56.7407C83.2837 57.0227 83.5188 57.4695 83.5169 58.1068C83.5142 59.0762 84.2978 59.8644 85.2673 59.8672Z" fill="#E29898"/>
</svg>
