<svg width="17" height="17" viewBox="0 0 17 17" fill="none" xmlns="http://www.w3.org/2000/svg">
<path d="M13.5025 2.87891H3.50033C2.67172 2.87891 2 3.55063 2 4.37923V13.3812C2 14.2098 2.67172 14.8815 3.50033 14.8815H13.5025C14.3311 14.8815 15.0028 14.2098 15.0028 13.3812V4.37923C15.0028 3.55063 14.3311 2.87891 13.5025 2.87891Z" stroke="black" stroke-width="1.00189" stroke-linejoin="round"/>
<path d="M4.5 1.87891V2.88812" stroke="black" stroke-width="1.00189" stroke-linecap="round" stroke-linejoin="round"/>
<path d="M12.5039 1.87891V2.88812" stroke="black" stroke-width="1.00189" stroke-linecap="round" stroke-linejoin="round"/>
<path d="M15.0028 5.37891H2" stroke="black" stroke-width="1.00189" stroke-linecap="round" stroke-linejoin="round"/>
<path d="M10.0039 8.50524L11.3613 7.50488H11.5044V12.7568" stroke="black" stroke-width="1.00189" stroke-linecap="round" stroke-linejoin="round"/>
<path d="M6.49769 9.96453C6.78265 9.96453 7.3044 9.83066 7.64629 9.48063C7.75827 9.36892 7.84676 9.23592 7.90655 9.08948C7.96634 8.94304 7.99622 8.78611 7.99443 8.62795C7.99443 7.81092 7.28782 7.37988 6.49644 7.37988C5.82705 7.37988 5.44794 7.74304 5.3125 7.97201" stroke="black" stroke-width="1.00189" stroke-linecap="round" stroke-linejoin="round"/>
<path d="M5.15625 12.0752C5.3089 12.3339 5.77277 12.8835 6.52881 12.8835C7.4231 12.8835 8.15911 12.3849 8.15911 11.5128C8.15911 11.1181 8.04463 10.7621 7.79689 10.5097C7.41027 10.1143 6.8194 9.96289 6.49721 9.96289" stroke="black" stroke-width="1.00189" stroke-linecap="round" stroke-linejoin="round"/>
</svg>
