<svg width="16" height="17" viewBox="0 0 16 17" fill="none" xmlns="http://www.w3.org/2000/svg">
<path d="M8.00098 1.12012C8.27712 1.12012 8.50098 1.34397 8.50098 1.62012V2.12012H9.5C10.3284 2.12012 11 2.79169 11 3.62012V6.12012H12.5C13.3284 6.12012 14 6.79169 14 7.62012V12.6201C14 13.4485 13.3284 14.1201 12.5 14.1201H5.5C5.49967 14.1201 5.50033 14.1201 5.5 14.1201L3.5 14.1201C2.67157 14.1201 2 13.4485 2 12.6201V7.91353C2 7.40522 2.25743 6.93149 2.68393 6.65495L4.68393 5.35814C4.7865 5.29164 4.89245 5.23953 5 5.20087V3.62012C5 2.79169 5.67157 2.12012 6.5 2.12012H7.50098V1.62012C7.50098 1.34397 7.72483 1.12012 8.00098 1.12012ZM6 5.20209C6.5621 5.40281 7 5.93118 7 6.61673V13.1201H9V7.62012C9 6.96701 9.4174 6.41139 10 6.20547V3.62012C10 3.34397 9.77614 3.12012 9.5 3.12012H6.5C6.22386 3.12012 6 3.34397 6 3.62012V5.20209ZM10.5 7.12012C10.2239 7.12012 10 7.34398 10 7.62012V13.1201H12.5C12.7761 13.1201 13 12.8963 13 12.6201V7.62012C13 7.34398 12.7761 7.12012 12.5 7.12012H10.5ZM5.22798 6.1972L3.22798 7.494C3.08581 7.58618 3 7.74409 3 7.91353V12.6201C3 12.8963 3.22386 13.1201 3.5 13.1201H6V6.61673C6 6.22026 5.56063 5.9815 5.22798 6.1972Z" fill="#14142B"/>
</svg>
