<svg width="42" height="41" viewBox="0 0 42 41" fill="none" xmlns="http://www.w3.org/2000/svg">
<circle cx="21" cy="20.5" r="20" stroke="#D94A38" stroke-width="0.671406"/>
<path fill-rule="evenodd" clip-rule="evenodd" d="M27.5151 12.9882C26.8643 12.3373 25.809 12.3373 25.1581 12.9882L20.8945 17.2518L16.6309 12.9882C15.98 12.3373 14.9247 12.3373 14.2738 12.9882L13.4882 13.7738C12.8373 14.4247 12.8373 15.48 13.4882 16.1309L17.7518 20.3945L13.4882 24.6581C12.8373 25.309 12.8373 26.3642 13.4882 27.0151L14.2738 27.8008C14.9247 28.4517 15.98 28.4517 16.6309 27.8008L20.8945 23.5372L25.1581 27.8008C25.809 28.4517 26.8642 28.4517 27.5151 27.8008L28.3008 27.0151C28.9517 26.3642 28.9517 25.309 28.3008 24.6581L24.0372 20.3945L28.3008 16.1309C28.9517 15.48 28.9517 14.4247 28.3008 13.7738L27.5151 12.9882Z" fill="url(#paint0_linear_3692_20234)"/>
<defs>
<linearGradient id="paint0_linear_3692_20234" x1="12.1363" y1="30.1347" x2="22.0713" y2="3.76627" gradientUnits="userSpaceOnUse">
<stop stop-color="#EA4080"/>
<stop offset="1" stop-color="#EE805F"/>
</linearGradient>
</defs>
</svg>
