<svg width="122" height="109" viewBox="0 0 122 109" fill="none" xmlns="http://www.w3.org/2000/svg">
<path opacity="0.058524" fill-rule="evenodd" clip-rule="evenodd" d="M83.9326 108.266C104.655 102.037 121.999 80.3617 121.999 53.957C121.999 27.5523 110.677 0 80.2477 0C49.8188 0 0 26.9918 0 53.3966C0 79.8013 63.2097 114.495 83.9326 108.266Z" fill="#E36262"/>
<path fill-rule="evenodd" clip-rule="evenodd" d="M64.8125 27.9735C75.8494 27.9735 84.8281 36.0327 84.8281 45.9392C84.8281 55.129 77.0963 62.7181 67.1673 63.7697V68.1322H71.8768C73.1767 68.1322 74.2316 69.079 74.2316 70.2458C74.2316 71.4125 73.1767 72.3594 71.8768 72.3594H67.1673V76.5866C67.1673 77.7533 66.1123 78.7002 64.8125 78.7002C63.5127 78.7002 62.4577 77.7533 62.4577 76.5866V72.3594H57.7482C56.4483 72.3594 55.3934 71.4125 55.3934 70.2458C55.3934 69.079 56.4483 68.1322 57.7482 68.1322H62.4577V63.7697C52.5287 62.7181 44.7969 55.129 44.7969 45.9392C44.7969 36.0327 53.7756 27.9735 64.8125 27.9735ZM64.8123 32.2006C56.3728 32.2006 49.5062 38.364 49.5062 45.9391C49.5062 53.5143 56.3728 59.6776 64.8123 59.6776C73.2517 59.6776 80.1183 53.5143 80.1183 45.9391C80.1183 38.364 73.2517 32.2006 64.8123 32.2006Z" fill="#E29898"/>
<path d="M67.1673 63.7697L67.1146 63.2725L66.6673 63.3199V63.7697H67.1673ZM67.1673 68.1322H66.6673V68.6322H67.1673V68.1322ZM67.1673 72.3594V71.8594H66.6673V72.3594H67.1673ZM62.4577 72.3594H62.9577V71.8594H62.4577V72.3594ZM62.4577 68.1322V68.6322H62.9577V68.1322H62.4577ZM62.4577 63.7697H62.9577V63.3199L62.5104 63.2725L62.4577 63.7697ZM85.3281 45.9392C85.3281 35.7071 76.0733 27.4735 64.8125 27.4735V28.4735C75.6254 28.4735 84.3281 36.3583 84.3281 45.9392H85.3281ZM67.2199 64.2669C77.3554 63.1934 85.3281 55.4302 85.3281 45.9392H84.3281C84.3281 54.8278 76.8372 62.2427 67.1146 63.2725L67.2199 64.2669ZM67.6673 68.1322V63.7697H66.6673V68.1322H67.6673ZM71.8768 67.6322H67.1673V68.6322H71.8768V67.6322ZM74.7316 70.2458C74.7316 68.7535 73.4006 67.6322 71.8768 67.6322V68.6322C72.9527 68.6322 73.7316 69.4046 73.7316 70.2458H74.7316ZM71.8768 72.8594C73.4006 72.8594 74.7316 71.7381 74.7316 70.2458H73.7316C73.7316 71.0869 72.9527 71.8594 71.8768 71.8594V72.8594ZM67.1673 72.8594H71.8768V71.8594H67.1673V72.8594ZM67.6673 76.5866V72.3594H66.6673V76.5866H67.6673ZM64.8125 79.2002C66.3363 79.2002 67.6673 78.0789 67.6673 76.5866H66.6673C66.6673 77.4277 65.8884 78.2002 64.8125 78.2002V79.2002ZM61.9577 76.5866C61.9577 78.0789 63.2887 79.2002 64.8125 79.2002V78.2002C63.7366 78.2002 62.9577 77.4277 62.9577 76.5866H61.9577ZM61.9577 72.3594V76.5866H62.9577V72.3594H61.9577ZM57.7482 72.8594H62.4577V71.8594H57.7482V72.8594ZM54.8934 70.2458C54.8934 71.7381 56.2244 72.8594 57.7482 72.8594V71.8594C56.6723 71.8594 55.8934 71.0869 55.8934 70.2458H54.8934ZM57.7482 67.6322C56.2244 67.6322 54.8934 68.7535 54.8934 70.2458H55.8934C55.8934 69.4046 56.6723 68.6322 57.7482 68.6322V67.6322ZM62.4577 67.6322H57.7482V68.6322H62.4577V67.6322ZM61.9577 63.7697V68.1322H62.9577V63.7697H61.9577ZM44.2969 45.9392C44.2969 55.4302 52.2696 63.1934 62.4051 64.2669L62.5104 63.2725C52.7878 62.2427 45.2969 54.8278 45.2969 45.9392H44.2969ZM64.8125 27.4735C53.5517 27.4735 44.2969 35.7071 44.2969 45.9392H45.2969C45.2969 36.3583 53.9996 28.4735 64.8125 28.4735V27.4735ZM50.0062 45.9391C50.0062 38.6896 56.5967 32.7006 64.8123 32.7006V31.7006C56.1488 31.7006 49.0062 38.0384 49.0062 45.9391H50.0062ZM64.8123 59.1776C56.5967 59.1776 50.0062 53.1887 50.0062 45.9391H49.0062C49.0062 53.8399 56.1488 60.1776 64.8123 60.1776V59.1776ZM79.6183 45.9391C79.6183 53.1887 73.0278 59.1776 64.8123 59.1776V60.1776C73.4757 60.1776 80.6183 53.8399 80.6183 45.9391H79.6183ZM64.8123 32.7006C73.0278 32.7006 79.6183 38.6896 79.6183 45.9391H80.6183C80.6183 38.0384 73.4757 31.7006 64.8123 31.7006V32.7006Z" fill="#FF8B99"/>
</svg>
