<svg width="109" height="106" viewBox="0 0 109 106" fill="none" xmlns="http://www.w3.org/2000/svg">
<path opacity="0.058524" fill-rule="evenodd" clip-rule="evenodd" d="M74.9889 105.286C93.5036 99.2283 108.999 78.1499 108.999 52.4719C108.999 26.7939 98.8832 0 71.6967 0C44.5102 0 0 26.249 0 51.9269C0 77.6049 56.4742 111.343 74.9889 105.286Z" fill="#E36262"/>
<path d="M72.1953 63.7832H57.7812V68.3535H72.1953C73.5166 68.3535 74.5977 67.3252 74.5977 66.0684C74.5977 64.8115 73.5166 63.7832 72.1953 63.7832Z" fill="#E29898"/>
<path d="M57.7812 70.7148V73H70.9941C71.6669 73 72.1953 72.4972 72.1953 71.8574V70.7148H57.7812Z" fill="#E29898"/>
<path d="M75.2641 36.2863C74.2391 36.2515 73.3965 37.0317 73.3965 37.999C73.3965 37.999 73.3965 44.1923 73.3965 48.1718C73.3965 49.384 72.8903 50.546 71.9893 51.4031L66.6219 56.5087C66.3817 56.7373 66.0935 56.8515 65.7811 56.8515C65.4688 56.8515 65.1564 56.7373 64.9402 56.5086C64.7001 56.303 64.58 56.006 64.58 55.7089C64.58 55.4118 64.7001 55.1147 64.9402 54.909L67.7511 52.2354C68.6879 51.3442 68.6639 49.8818 67.727 48.9906C66.7901 48.0994 65.2766 48.0994 64.3396 48.9906C64.2682 49.0588 61.7719 51.4422 59.8799 53.2485C58.5359 54.5317 57.7812 56.2692 57.7812 58.0806V61.4219H72.1953V60.622L74.7899 56.9429C76.2312 54.8635 77 52.464 77 49.9732V38.0401C77 37.1108 76.2404 36.3193 75.2641 36.2863Z" fill="#E29898"/>
<path d="M49.8135 36.2852C48.8184 36.2852 48.0117 37.0525 48.0117 37.999V46.151C48.8734 46.3328 49.6929 46.741 50.3628 47.3783C50.3944 47.4084 50.899 47.8902 51.6152 48.574C51.6152 43.9172 51.6152 38.4486 51.6152 37.999C51.6152 37.0525 50.8085 36.2852 49.8135 36.2852Z" fill="#E29898"/>
<path d="M43.7417 34.0011C42.7655 34.0343 42.0059 34.8258 42.0059 35.755V37.999V48.1718C42.0059 48.5854 42.1212 48.9818 42.3363 49.3289C42.3433 49.3244 42.3502 49.3198 42.3568 49.3144C42.8597 47.7106 44.0056 46.7342 45.6094 46.2256V35.7138C45.6094 34.7465 44.7668 33.9663 43.7417 34.0011Z" fill="#E29898"/>
<path d="M40.8047 63.7832C39.4834 63.7832 38.4023 64.8115 38.4023 66.0684C38.4023 67.3252 39.4834 68.3535 40.8047 68.3535H55.2188V63.7832H40.8047Z" fill="#E29898"/>
<path d="M40.8047 70.7148V71.8574C40.8047 72.4972 41.3331 73 42.0059 73H55.2188V70.7148H40.8047Z" fill="#E29898"/>
<path d="M53.1201 53.2485C51.2281 51.4422 48.7318 49.0588 48.6604 48.9906C47.7234 48.0994 46.2099 48.0994 45.273 48.9906C44.3361 49.8818 44.3121 51.3442 45.2489 52.2354L48.0598 54.909C48.3 55.1148 48.4201 55.4119 48.4201 55.709C48.4201 56.006 48.3 56.3031 48.0598 56.5087C47.8436 56.7373 47.5312 56.8515 47.2189 56.8515C46.9066 56.8515 46.6184 56.7373 46.3782 56.5087L41.0108 51.4031C40.1097 50.546 39.6035 49.384 39.6035 48.1718C39.6035 44.1923 39.6035 37.999 39.6035 37.999C39.6035 37.0317 38.7609 36.2515 37.7359 36.2863C36.7596 36.3193 36 37.1108 36 38.0401V49.9732C36 52.464 36.7688 54.8635 38.2101 56.9429L40.8047 60.622V61.4219H55.2188V58.0806C55.2188 56.2692 54.4641 54.5317 53.1201 53.2485Z" fill="#E29898"/>
<path d="M63.1865 36.2852C62.1915 36.2852 61.3848 37.0525 61.3848 37.999C61.3848 38.4486 61.3848 43.9172 61.3848 48.574C62.101 47.8902 62.6056 47.4084 62.6372 47.3783C63.3071 46.741 64.1266 46.3328 64.9883 46.151V37.999C64.9883 37.0525 64.1816 36.2852 63.1865 36.2852Z" fill="#E29898"/>
<path d="M69.2583 34.0011C68.2332 33.9663 67.3906 34.7465 67.3906 35.7138V46.2256C68.9944 46.7342 70.1403 47.7106 70.6432 49.3144C70.6498 49.3198 70.6567 49.3244 70.6637 49.3289C70.8788 48.9817 70.9941 48.5853 70.9941 48.1718V37.999V35.755C70.9941 34.8258 70.2345 34.0343 69.2583 34.0011Z" fill="#E29898"/>
</svg>
