<svg width="20" height="21" viewBox="0 0 20 21" fill="none" xmlns="http://www.w3.org/2000/svg">
<path d="M8.5063 3.90123C9.4313 3.37016 10.5687 3.37016 11.4937 3.90123L18.749 8.06664C18.9042 8.1558 19 8.32119 19 8.50026C19 8.67933 18.9042 8.84472 18.7489 8.93388L16 10.5121V15.0002C16 15.1328 15.9473 15.26 15.8536 15.3538L15.852 15.3554L15.8496 15.3577L15.8428 15.3644L15.8201 15.3861C15.801 15.4041 15.7741 15.429 15.7394 15.4599C15.6701 15.5215 15.5696 15.6069 15.4389 15.7081C15.1777 15.9103 14.7948 16.1763 14.2978 16.4414C13.3033 16.9718 11.8479 17.5002 10 17.5002C8.15211 17.5002 6.69675 16.9718 5.70221 16.4414C5.20518 16.1763 4.82226 15.9103 4.5611 15.7081C4.43043 15.6069 4.32994 15.5215 4.26059 15.4599C4.22591 15.429 4.19898 15.4041 4.17992 15.3861C4.07226 15.2822 4 15.154 4 15.0002V10.5121L2 9.36386L2 14.0002C2 14.2764 1.77614 14.5002 1.5 14.5002C1.22386 14.5002 1 14.2764 1 14.0002V8.50026C1 8.31088 1.10529 8.14606 1.26052 8.0612L8.5063 3.90123ZM11.4937 13.0992C10.5687 13.6303 9.43131 13.6303 8.50632 13.0992L5 11.0862V14.7774C5.04686 14.817 5.10469 14.8643 5.17327 14.9174C5.39649 15.0902 5.73232 15.3241 6.17279 15.5591C7.05325 16.0286 8.34789 16.5002 10 16.5002C11.6521 16.5002 12.9467 16.0286 13.8272 15.5591C14.2677 15.3241 14.6035 15.0902 14.8267 14.9174C14.8953 14.8643 14.9531 14.817 15 14.7774V11.0862L11.4937 13.0992ZM10.9958 4.76846C10.3791 4.41442 9.62086 4.41442 9.0042 4.76846L2.50423 8.50025L9.00421 12.232C9.62087 12.586 10.3791 12.586 10.9958 12.232L17.4958 8.50025L10.9958 4.76846Z" fill="#14142B"/>
</svg>
