<svg width="20" height="21" viewBox="0 0 20 21" fill="none" xmlns="http://www.w3.org/2000/svg">
<path d="M10.4965 17.3028L16.7408 10.9994C18.4252 9.28856 18.4199 6.52549 16.7239 4.81249C15.0611 3.13292 12.3961 3.0895 10.6978 4.69086C10.6612 4.72539 10.6251 4.76068 10.5894 4.79673L9.99299 5.40026L9.38843 4.78963C9.35529 4.75616 9.32175 4.72333 9.28783 4.69116C7.58595 3.07726 4.91654 3.10193 3.26122 4.7739C1.5729 6.4792 1.58114 9.25004 3.27679 10.9627L9.55368 17.3028C9.81404 17.5657 10.2362 17.5657 10.4965 17.3028ZM11.3 5.50029C12.5964 4.19135 14.7025 4.19204 16.0133 5.51604C17.3253 6.84123 17.3272 8.97734 16.0292 10.2968L16.0282 10.2978L10.0252 16.3577L3.98743 10.2592C2.67408 8.93263 2.67286 6.78953 3.97185 5.47746C5.26525 4.17106 7.36984 4.17208 8.6778 5.49319L9.63801 6.46306C9.8338 6.66082 10.1534 6.66067 10.349 6.46272L11.3 5.50029Z" fill="#14142B"/>
</svg>
