<svg width="38" height="29" viewBox="0 0 38 29" fill="none" xmlns="http://www.w3.org/2000/svg">
<path fill-rule="evenodd" clip-rule="evenodd" d="M26.7931 12.325C26.1376 12.325 25.6056 11.919 25.6056 11.4188V8.8245C25.6056 6.29184 22.9061 4.23163 19.5874 4.23163H19.5621C17.9581 4.23163 16.4556 4.70288 15.3203 5.562C14.1771 6.42475 13.5454 7.57629 13.5391 8.80396V11.4188C13.5391 11.919 13.0071 12.325 12.3516 12.325C11.6961 12.325 11.1641 11.919 11.1641 11.4188V8.8245C11.1736 7.0845 12.0555 5.47863 13.6467 4.27513C15.2396 3.07042 17.3422 2.37321 19.5921 2.41913C24.2155 2.41913 27.9806 5.29254 27.9806 8.8245V11.4188C27.9806 11.919 27.4486 12.325 26.7931 12.325Z" fill="#EEEFF1"/>
<path fill-rule="evenodd" clip-rule="evenodd" d="M13.5235 12.2393C10.8667 12.2393 8.70703 13.8874 8.70703 15.915V21.0975C8.70703 23.1251 10.8667 24.7733 13.5235 24.7733H25.6218C28.277 24.7733 30.4383 23.1251 30.4383 21.0975V15.915C30.4383 13.8874 28.277 12.2393 25.6218 12.2393H13.5235ZM25.6218 26.5858H13.5235C9.55728 26.5858 6.33203 24.1244 6.33203 21.0976V15.915C6.33203 12.8881 9.55728 10.4268 13.5235 10.4268H25.6218C29.588 10.4268 32.8133 12.8881 32.8133 15.915V21.0976C32.8133 24.1244 29.588 26.5858 25.6218 26.5858Z" fill="#EEEFF1"/>
<path fill-rule="evenodd" clip-rule="evenodd" d="M19.5742 20.754C18.9187 20.754 18.3867 20.348 18.3867 19.8478V17.1641C18.3867 16.6638 18.9187 16.2578 19.5742 16.2578C20.2297 16.2578 20.7617 16.6638 20.7617 17.1641V19.8478C20.7617 20.348 20.2297 20.754 19.5742 20.754Z" fill="#EEEFF1"/>
</svg>
