<svg width="20" height="20" viewBox="0 0 20 20" fill="none" xmlns="http://www.w3.org/2000/svg">
<path d="M12.4735 8.01431C12.9863 8.01431 13.409 8.40035 13.4668 8.89769L13.4735 9.01431V13.3817C13.4735 15.306 11.9135 16.866 9.98922 16.866C8.12905 16.866 6.60934 15.4083 6.51009 13.5728L6.50494 13.3817V9.01431C6.50494 8.50148 6.89098 8.0788 7.38832 8.02104L7.50494 8.01431H12.4735ZM12.4735 9.01431H7.50494V13.3817C7.50494 14.7537 8.61719 15.866 9.98922 15.866C11.3064 15.866 12.3841 14.8409 12.4682 13.545L12.4735 13.3817V9.01431ZM5.77285 8.01372C5.63086 8.25897 5.53947 8.53718 5.51295 8.83406L5.50494 9.01431H3.01562V12.7534C3.01562 13.7786 3.84671 14.6097 4.8719 14.6097C5.14311 14.6097 5.40074 14.5515 5.63299 14.447C5.71225 14.7756 5.82882 15.0907 5.97728 15.3871C5.63765 15.5307 5.264 15.6097 4.8719 15.6097C3.35076 15.6097 2.10735 14.4206 2.02047 12.9212L2.01562 12.7534V9.01431C2.01562 8.50148 2.40167 8.0788 2.899 8.02104L3.01562 8.01431L5.77285 8.01372ZM14.2056 8.01372L16.99 8.01431C17.5028 8.01431 17.9255 8.40035 17.9832 8.89769L17.99 9.01431V12.7542C17.99 14.3312 16.7115 15.6097 15.1345 15.6097C14.7336 15.6097 14.3519 15.5271 14.0057 15.3779C14.1539 15.0803 14.2697 14.7648 14.3491 14.4351C14.5875 14.5473 14.8537 14.6097 15.1345 14.6097C16.1104 14.6097 16.9104 13.8562 16.9844 12.8992L16.99 12.7542V9.01431H14.4735L14.468 8.86505C14.4453 8.55654 14.3525 8.26749 14.2056 8.01372ZM9.98735 2.98926C11.2175 2.98926 12.2147 3.98648 12.2147 5.21662C12.2147 6.44676 11.2175 7.44398 9.98735 7.44398C8.75721 7.44398 7.75999 6.44676 7.75999 5.21662C7.75999 3.98648 8.75721 2.98926 9.98735 2.98926ZM14.9745 3.61739C16.0312 3.61739 16.8878 4.474 16.8878 5.53069C16.8878 6.58737 16.0312 7.44398 14.9745 7.44398C13.9178 7.44398 13.0612 6.58737 13.0612 5.53069C13.0612 4.474 13.9178 3.61739 14.9745 3.61739ZM5.01595 3.61739C6.07264 3.61739 6.92925 4.474 6.92925 5.53069C6.92925 6.58737 6.07264 7.44398 5.01595 7.44398C3.95927 7.44398 3.10266 6.58737 3.10266 5.53069C3.10266 4.474 3.95927 3.61739 5.01595 3.61739ZM9.98735 3.98926C9.3095 3.98926 8.75999 4.53877 8.75999 5.21662C8.75999 5.89447 9.3095 6.44398 9.98735 6.44398C10.6652 6.44398 11.2147 5.89447 11.2147 5.21662C11.2147 4.53877 10.6652 3.98926 9.98735 3.98926ZM14.9745 4.61739C14.4701 4.61739 14.0612 5.02629 14.0612 5.53069C14.0612 6.03509 14.4701 6.44398 14.9745 6.44398C15.4789 6.44398 15.8878 6.03509 15.8878 5.53069C15.8878 5.02629 15.4789 4.61739 14.9745 4.61739ZM5.01595 4.61739C4.51155 4.61739 4.10266 5.02629 4.10266 5.53069C4.10266 6.03509 4.51155 6.44398 5.01595 6.44398C5.52035 6.44398 5.92925 6.03509 5.92925 5.53069C5.92925 5.02629 5.52035 4.61739 5.01595 4.61739Z" fill="#14142B"/>
</svg>
