<svg width="20" height="21" viewBox="0 0 20 21" fill="none" xmlns="http://www.w3.org/2000/svg">
<path d="M8.75 3.87012C8.75 2.35133 7.51878 1.12012 6 1.12012C4.48122 1.12012 3.25 2.35133 3.25 3.87012C3.25 5.3889 4.48122 6.62012 6 6.62012C7.51878 6.62012 8.75 5.3889 8.75 3.87012ZM4.25 3.87012C4.25 2.90362 5.0335 2.12012 6 2.12012C6.9665 2.12012 7.75 2.90362 7.75 3.87012C7.75 4.83662 6.9665 5.62012 6 5.62012C5.0335 5.62012 4.25 4.83662 4.25 3.87012ZM2.5 7.62012H6.68252C6.51859 7.93024 6.39687 8.26613 6.32501 8.62012H2.5C2.22386 8.62012 2 8.84398 2 9.12012V9.62012C2 10.8792 3.09851 12.234 5.09636 12.5511C4.77396 12.7702 4.50546 13.0627 4.31486 13.4046C2.20563 12.832 1 11.2075 1 9.62012V9.12012C1 8.29169 1.67157 7.62012 2.5 7.62012ZM7.87858 7.62012C8.38298 7.00937 9.14603 6.62012 10 6.62012C10.854 6.62012 11.617 7.00937 12.1214 7.62012C12.3605 7.90963 12.5415 8.24892 12.6465 8.62012C12.7139 8.85853 12.75 9.11011 12.75 9.37012C12.75 10.4402 12.1389 11.3675 11.2466 11.822C10.8919 12.0027 10.4929 12.1086 10.0702 12.1192C10.0469 12.1198 10.0235 12.1201 10 12.1201C9.97654 12.1201 9.95315 12.1198 9.92983 12.1192C9.50709 12.1086 9.10806 12.0027 8.75342 11.822C7.86115 11.3675 7.25 10.4402 7.25 9.37012C7.25 9.11011 7.28608 8.85853 7.35352 8.62012C7.4585 8.24892 7.63948 7.90963 7.87858 7.62012ZM8.41841 8.62012C8.31042 8.84743 8.25 9.10172 8.25 9.37012C8.25 10.0842 8.67768 10.6984 9.29086 10.9705C9.50763 11.0667 9.74757 11.1201 10 11.1201C10.2524 11.1201 10.4924 11.0667 10.7091 10.9705C11.3223 10.6984 11.75 10.0842 11.75 9.37012C11.75 9.10172 11.6896 8.84743 11.5816 8.62012C11.3362 8.10362 10.8453 7.72638 10.2597 7.63926C10.175 7.62665 10.0883 7.62012 10 7.62012C9.91175 7.62012 9.82502 7.62665 9.74028 7.63926C9.15468 7.72638 8.66377 8.10362 8.41841 8.62012ZM15.6851 13.4046C15.4945 13.0627 15.226 12.7702 14.9036 12.5511C16.9015 12.234 18 10.8792 18 9.62012V9.12012C18 8.84398 17.7761 8.62012 17.5 8.62012H13.675C13.6031 8.26613 13.4814 7.93024 13.3175 7.62012H17.5C18.3284 7.62012 19 8.29169 19 9.12012V9.62012C19 11.2075 17.7944 12.832 15.6851 13.4046ZM14.4872 13.4907C14.2234 13.26 13.878 13.1201 13.5 13.1201H6.5C6.06797 13.1201 5.6786 13.3028 5.40489 13.5951C5.15376 13.8632 5 14.2237 5 14.6201V15.1201C5 17.0916 6.85951 19.1201 10 19.1201C13.1405 19.1201 15 17.0916 15 15.1201V14.6201C15 14.1697 14.8015 13.7657 14.4872 13.4907ZM6 14.6201C6 14.344 6.22386 14.1201 6.5 14.1201H13.5C13.7761 14.1201 14 14.344 14 14.6201V15.1201C14 16.5578 12.5678 18.1201 10 18.1201C7.43216 18.1201 6 16.5578 6 15.1201V14.6201ZM14 1.12012C15.5188 1.12012 16.75 2.35133 16.75 3.87012C16.75 5.3889 15.5188 6.62012 14 6.62012C12.4812 6.62012 11.25 5.3889 11.25 3.87012C11.25 2.35133 12.4812 1.12012 14 1.12012ZM14 2.12012C13.0335 2.12012 12.25 2.90362 12.25 3.87012C12.25 4.83662 13.0335 5.62012 14 5.62012C14.9665 5.62012 15.75 4.83662 15.75 3.87012C15.75 2.90362 14.9665 2.12012 14 2.12012Z" fill="#14142B"/>
</svg>
