<svg width="385" height="497" viewBox="0 0 385 497" fill="none" xmlns="http://www.w3.org/2000/svg">
<g filter="url(#filter0_d_39_29)">
<path fill-rule="evenodd" clip-rule="evenodd" d="M39.7481 26.2285C33.564 26.2285 28.5508 31.2417 28.5508 37.4258V454.802C28.5508 460.986 33.564 466 39.7481 466H48.5161C48.392 465.357 48.3271 464.695 48.3271 464.018C48.3271 458.001 53.4532 453.123 59.7764 453.123C66.0997 453.123 71.2257 458.001 71.2257 464.018C71.2257 464.695 71.1609 465.357 71.0368 466H81.8232C81.6991 465.357 81.6343 464.695 81.6343 464.018C81.6343 458.001 86.7603 453.123 93.0836 453.123C99.4068 453.123 104.533 458.001 104.533 464.018C104.533 464.695 104.468 465.357 104.344 466H115.131C115.007 465.357 114.942 464.695 114.942 464.018C114.942 458.001 120.068 453.123 126.391 453.123C132.714 453.123 137.84 458.001 137.84 464.018C137.84 464.695 137.776 465.357 137.652 466H148.437C148.313 465.357 148.248 464.695 148.248 464.018C148.248 458.001 153.374 453.123 159.697 453.123C166.021 453.123 171.147 458.001 171.147 464.018C171.147 464.695 171.082 465.357 170.958 466H181.744C181.62 465.357 181.555 464.695 181.555 464.018C181.555 458.001 186.681 453.123 193.004 453.123C199.327 453.123 204.453 458.001 204.453 464.018C204.453 464.695 204.388 465.357 204.264 466H215.052C214.928 465.357 214.863 464.695 214.863 464.018C214.863 458.001 219.989 453.123 226.312 453.123C232.635 453.123 237.761 458.001 237.761 464.018C237.761 464.695 237.697 465.357 237.572 466H248.358C248.234 465.357 248.169 464.695 248.169 464.018C248.169 458.001 253.295 453.123 259.619 453.123C265.942 453.123 271.068 458.001 271.068 464.018C271.068 464.695 271.003 465.357 270.879 466H281.665C281.541 465.357 281.476 464.695 281.476 464.018C281.476 458.001 286.602 453.123 292.925 453.123C299.249 453.123 304.375 458.001 304.375 464.018C304.375 464.695 304.31 465.357 304.186 466H314.973C314.849 465.357 314.784 464.695 314.784 464.018C314.784 458.001 319.91 453.123 326.233 453.123C332.557 453.123 337.683 458.001 337.683 464.018C337.683 464.695 337.618 465.357 337.494 466H345.22C351.404 466 356.417 460.986 356.417 454.802V37.4258C356.417 31.2417 351.404 26.2285 345.22 26.2285H39.7481Z" fill="white"/>
</g>
<defs>
<filter id="filter0_d_39_29" x="0.55752" y="0.474715" width="383.853" height="495.758" filterUnits="userSpaceOnUse" color-interpolation-filters="sRGB">
<feFlood flood-opacity="0" result="BackgroundImageFix"/>
<feColorMatrix in="SourceAlpha" type="matrix" values="0 0 0 0 0 0 0 0 0 0 0 0 0 0 0 0 0 0 127 0" result="hardAlpha"/>
<feOffset dy="2.23946"/>
<feGaussianBlur stdDeviation="13.9966"/>
<feComposite in2="hardAlpha" operator="out"/>
<feColorMatrix type="matrix" values="0 0 0 0 0 0 0 0 0 0 0 0 0 0 0 0 0 0 0.05 0"/>
<feBlend mode="normal" in2="BackgroundImageFix" result="effect1_dropShadow_39_29"/>
<feBlend mode="normal" in="SourceGraphic" in2="effect1_dropShadow_39_29" result="shape"/>
</filter>
</defs>
</svg>
