<svg width="20" height="21" viewBox="0 0 20 21" fill="none" xmlns="http://www.w3.org/2000/svg">
<path d="M14 3.62012C14 2.79169 13.3284 2.12012 12.5 2.12012H7.5C6.67157 2.12012 6 2.79169 6 3.62012V16.6201C6 17.4485 6.67157 18.1201 7.5 18.1201H12.5C13.3284 18.1201 14 17.4485 14 16.6201L14 3.62012ZM7 13.124H9.5C9.77614 13.124 10 12.9001 10 12.624C10 12.3479 9.77614 12.124 9.5 12.124H7L7 10.6201H8.5C8.77614 10.6201 9 10.3963 9 10.1201C9 9.84398 8.77614 9.62012 8.5 9.62012H7L7 8.12012H9.5C9.77614 8.12012 10 7.89626 10 7.62012C10 7.34398 9.77614 7.12012 9.5 7.12012H7L7 5.62012H8.5C8.77614 5.62012 9 5.39626 9 5.12012C9 4.84398 8.77614 4.62012 8.5 4.62012H7L7 3.62012C7 3.34397 7.22386 3.12012 7.5 3.12012L12.5 3.12012C12.7761 3.12012 13 3.34398 13 3.62012L13 16.6201C13 16.8963 12.7761 17.1201 12.5 17.1201H7.5C7.22386 17.1201 7 16.8963 7 16.6201L7 15.6201H8.5C8.77614 15.6201 9 15.3963 9 15.1201C9 14.844 8.77614 14.6201 8.5 14.6201H7L7 13.124Z" fill="#14142B"/>
</svg>
