<svg width="24" height="24" viewBox="0 0 24 24" fill="none" xmlns="http://www.w3.org/2000/svg">
<path d="M3 3.37012C3 2.9559 3.33579 2.62012 3.75 2.62012H20.25C20.6642 2.62012 21 2.9559 21 3.37012C21 3.78433 20.6642 4.12012 20.25 4.12012H19.208L21.9446 10.8371C21.9812 10.927 22 11.0231 22 11.1201C22 13.0531 20.433 14.6201 18.5 14.6201C16.567 14.6201 15 13.0531 15 11.1201C15 11.0231 15.0188 10.927 15.0554 10.8371L17.792 4.12012H12.75L12.75 16.1201H16.75C17.9926 16.1201 19 17.1275 19 18.3701C19 19.6128 17.9926 20.6201 16.75 20.6201H7.25293C6.01029 20.6201 5.00293 19.6128 5.00293 18.3701C5.00293 17.1275 6.01029 16.1201 7.25293 16.1201H11.25L11.25 4.12012H6.208L8.94457 10.8371C8.98118 10.927 9 11.0231 9 11.1201C9 13.0531 7.433 14.6201 5.5 14.6201C3.567 14.6201 2 13.0531 2 11.1201C2 11.0231 2.01882 10.927 2.05543 10.8371L4.792 4.12012H3.75C3.33579 4.12012 3 3.78433 3 3.37012ZM6.50293 18.3701C6.50293 18.7843 6.83872 19.1201 7.25293 19.1201H16.75C17.1642 19.1201 17.5 18.7843 17.5 18.3701C17.5 17.9559 17.1642 17.6201 16.75 17.6201H7.25293C6.83872 17.6201 6.50293 17.9559 6.50293 18.3701ZM7.35462 11.8701H3.64538C3.94207 12.6031 4.66066 13.1201 5.5 13.1201C6.33934 13.1201 7.05793 12.6031 7.35462 11.8701ZM7.13459 10.3701L5.5 6.35794L3.86541 10.3701H7.13459ZM18.5 13.1201C19.3393 13.1201 20.0579 12.6031 20.3546 11.8701H16.6454C16.9421 12.6031 17.6607 13.1201 18.5 13.1201ZM16.8654 10.3701H20.1346L18.5 6.35794L16.8654 10.3701Z" fill="#14142B"/>
</svg>
