<svg width="155" height="160" viewBox="0 0 155 160" fill="none" xmlns="http://www.w3.org/2000/svg">
<path opacity="0.058524" fill-rule="evenodd" clip-rule="evenodd" d="M106.636 158.515C132.965 149.395 155 117.66 155 79C155 40.3401 140.615 0 101.955 0C63.2947 0 0 39.5195 0 78.1795C0 116.839 80.3078 167.635 106.636 158.515Z" fill="#E36262"/>
<path fill-rule="evenodd" clip-rule="evenodd" d="M86.6273 50.5751C82.6747 50.5751 79.4705 53.7793 79.4705 57.7319C79.475 61.6827 82.6766 64.8842 86.6273 64.8887C90.5799 64.8887 93.7842 61.6845 93.7842 57.7319C93.7842 53.7793 90.5799 50.5751 86.6273 50.5751ZM101.963 74.0904C101.959 70.1396 98.7573 66.9381 94.8066 66.9336H78.4481C74.4974 66.9381 71.2958 70.1396 71.2913 74.0904V82.2696C71.2913 83.9636 72.6645 85.3368 74.3585 85.3368C76.0525 85.3368 77.4257 83.9636 77.4257 82.2696V74.0904C77.4257 73.5257 77.8834 73.068 78.4481 73.068C79.0128 73.068 79.4705 73.5257 79.4705 74.0904V104.763C79.4705 105.858 80.0551 106.871 81.0041 107.419C81.9531 107.967 83.1223 107.967 84.0713 107.419C85.0203 106.871 85.6049 105.858 85.6049 104.763V91.4713C85.6049 90.9066 86.0627 90.4489 86.6273 90.4489C87.192 90.4489 87.6497 90.9066 87.6497 91.4713V104.763C87.6497 106.457 89.023 107.83 90.717 107.83C92.4109 107.83 93.7842 106.457 93.7842 104.763V74.0904C93.7842 73.5257 94.2419 73.068 94.8066 73.068C95.3712 73.068 95.829 73.5257 95.829 74.0904V82.2696C95.829 83.9636 97.2022 85.3368 98.8962 85.3368C100.59 85.3368 101.963 83.9636 101.963 82.2696V74.0904Z" fill="#E29898"/>
<path d="M65.1568 51.5975V106.807C65.1568 107.372 64.6991 107.83 64.1344 107.83H59.0224C58.4577 107.83 58 107.372 58 106.807V104.763H61.0672C61.6319 104.763 62.0896 104.305 62.0896 103.74C62.0896 103.175 61.6319 102.718 61.0672 102.718H58V100.673H60.0448C60.6095 100.673 61.0672 100.215 61.0672 99.6505C61.0672 99.0859 60.6095 98.6281 60.0448 98.6281H58V96.5833H61.0672C61.6319 96.5833 62.0896 96.1256 62.0896 95.5609C62.0896 94.9962 61.6319 94.5385 61.0672 94.5385H58V92.4937H60.0448C60.6095 92.4937 61.0672 92.0359 61.0672 91.4713C61.0672 90.9066 60.6095 90.4489 60.0448 90.4489H58V88.4041H61.0672C61.6319 88.4041 62.0896 87.9463 62.0896 87.3817C62.0896 86.817 61.6319 86.3592 61.0672 86.3592H58V84.3144H60.0448C60.6095 84.3144 61.0672 83.8567 61.0672 83.292C61.0672 82.7274 60.6095 82.2696 60.0448 82.2696H58V80.2248H61.0672C61.6319 80.2248 62.0896 79.7671 62.0896 79.2024C62.0896 78.6378 61.6319 78.18 61.0672 78.18H58V76.1352H60.0448C60.6095 76.1352 61.0672 75.6775 61.0672 75.1128C61.0672 74.5481 60.6095 74.0904 60.0448 74.0904H58V72.0456H61.0672C61.6319 72.0456 62.0896 71.5878 62.0896 71.0232C62.0896 70.4585 61.6319 70.0008 61.0672 70.0008H58V67.956H60.0448C60.6095 67.956 61.0672 67.4982 61.0672 66.9336C61.0672 66.3689 60.6095 65.9111 60.0448 65.9111H58V63.8663H61.0672C61.6319 63.8663 62.0896 63.4086 62.0896 62.8439C62.0896 62.2793 61.6319 61.8215 61.0672 61.8215H58V59.7767H60.0448C60.6095 59.7767 61.0672 59.319 61.0672 58.7543C61.0672 58.1897 60.6095 57.7319 60.0448 57.7319H58V55.6871H61.0672C61.6319 55.6871 62.0896 55.2294 62.0896 54.6647C62.0896 54.1 61.6319 53.6423 61.0672 53.6423H58V51.5975C58 51.0328 58.4577 50.5751 59.0224 50.5751H64.1344C64.6991 50.5751 65.1568 51.0328 65.1568 51.5975Z" fill="#E29898"/>
<path d="M114.058 101.695H112.187V56.7096H114.058C114.458 56.7096 114.82 56.4774 114.987 56.1149C115.154 55.7524 115.095 55.3259 114.835 55.0226L110.92 50.4627C110.725 50.2355 110.442 50.1047 110.143 50.1047C109.844 50.1047 109.56 50.2355 109.366 50.4627L105.45 55.0226C105.19 55.3259 105.131 55.7524 105.298 56.1149C105.465 56.4774 105.828 56.7096 106.227 56.7096H108.098V101.695H106.227C105.828 101.695 105.465 101.928 105.298 102.29C105.131 102.653 105.19 103.079 105.45 103.382L109.366 107.942C109.56 108.169 109.844 108.3 110.143 108.3C110.442 108.3 110.725 108.169 110.92 107.942L114.835 103.382C115.095 103.079 115.154 102.653 114.987 102.29C114.82 101.928 114.458 101.695 114.058 101.695Z" fill="#E29898"/>
</svg>
