<svg width="128" height="113" viewBox="0 0 128 113" fill="none" xmlns="http://www.w3.org/2000/svg">
<path opacity="0.058524" fill-rule="evenodd" clip-rule="evenodd" d="M88.0604 112.239C109.802 105.781 127.999 83.3108 127.999 55.9371C127.999 28.5634 116.12 0 84.1943 0C52.2689 0 0 27.9824 0 55.3561C0 82.7298 66.3184 118.696 88.0604 112.239Z" fill="#E36262"/>
<path d="M84.0573 46.5658H79.4709V46.5808C76.4133 46.5808 73.9252 43.6431 73.9252 40.5855C73.9252 37.5279 76.4133 35.3396 79.4709 35.3396V30.8431C73.9402 30.8431 69.4287 35.3396 69.4287 40.8853C69.4287 46.4311 73.9252 50.9275 79.4709 50.9275V50.9125H84.0573C87.1898 50.9125 89.9628 53.1308 89.9628 57.0727V60.9696H94.4592V56.0384C94.4591 50.6426 89.6629 46.5658 84.0573 46.5658Z" fill="#E29898"/>
<rect x="89.9624" y="63.9673" width="4.49649" height="8.99297" fill="#E29898"/>
<rect x="42" y="63.9673" width="44.9649" height="8.99297" fill="#E29898"/>
<path d="M92.5104 39.1766C94.354 37.363 95.508 34.83 95.508 32.0422C95.508 26.4965 90.9965 22 85.4658 22V26.4965C88.5234 26.4965 91.0115 28.9846 91.0115 32.0422C91.0115 35.0998 88.5234 37.5879 85.4658 37.5879V42.0844C92.1955 42.0844 97.4564 47.5551 97.4564 54.2849V60.9697H101.953V54.2699C101.953 47.6 98.116 41.8445 92.5104 39.1766Z" fill="#E29898"/>
<rect x="97.4565" y="63.9673" width="4.49649" height="8.99297" fill="#E29898"/>
</svg>
