<svg width="31" height="31" viewBox="0 0 31 31" fill="none" xmlns="http://www.w3.org/2000/svg">
<circle cx="15.4844" cy="15.5" r="15" stroke="#62BAF3" stroke-width="0.671406"/>
<g clip-path="url(#clip0_3692_20237)">
<path d="M25.0938 11.5279V19.6699C25.0938 21.403 23.7373 22.8192 22.0282 22.9148L21.8438 22.9199H8.34375C6.61072 22.9199 5.1945 21.5635 5.09889 19.8543L5.09375 19.6699V11.5279L14.7457 16.5843C14.9637 16.6985 15.2238 16.6985 15.4418 16.5843L25.0938 11.5279ZM8.34375 6.91992H21.8438C23.5285 6.91992 24.9138 8.20183 25.0776 9.84347L15.0938 15.0733L5.10994 9.84347C5.26761 8.26264 6.55807 7.01537 8.15784 6.92515L8.34375 6.91992H21.8438H8.34375Z" fill="#62BAF3"/>
</g>
<defs>
<clipPath id="clip0_3692_20237">
<rect width="14.8941" height="14.8941" fill="white" transform="translate(8.09375 7.91992)"/>
</clipPath>
</defs>
</svg>
