<svg width="155" height="191" viewBox="0 0 155 191" fill="none" xmlns="http://www.w3.org/2000/svg">
<path opacity="0.058524" fill-rule="evenodd" clip-rule="evenodd" d="M106.636 189.306C132.965 178.414 155 140.515 155 94.3456C155 48.176 140.615 0 101.955 0C63.2947 0 0 47.1961 0 93.3657C0 139.535 80.3078 200.197 106.636 189.306Z" fill="#E36262"/>
<path d="M121.208 82.8409L87.9822 71.1179C87.537 70.9607 87.0513 70.9607 86.6062 71.1179L53.3801 82.8409C52.554 83.1324 52.0011 83.9127 52 84.7887C51.9989 85.6647 52.55 86.4463 53.3754 86.7397L86.6015 98.5517C86.8255 98.6314 87.0599 98.6713 87.2941 98.6713C87.5285 98.6713 87.7627 98.6314 87.9868 98.5517L121.213 86.7397C122.038 86.4463 122.589 85.6647 122.588 84.7887C122.587 83.9127 122.034 83.1324 121.208 82.8409Z" fill="#E29898"/>
<path d="M117.621 110.445V92.4061L113.485 93.8765V110.445C112.239 111.162 111.4 112.505 111.4 114.046C111.4 115.587 112.239 116.93 113.485 117.647V127.81C113.485 128.952 114.411 129.878 115.553 129.878C116.695 129.878 117.621 128.952 117.621 127.81V117.647C118.867 116.93 119.706 115.587 119.706 114.046C119.706 112.505 118.867 111.162 117.621 110.445Z" fill="#E29898"/>
<path d="M87.2939 102.807C86.584 102.807 85.8849 102.687 85.2158 102.449L66.5371 95.8085V104.909C66.5371 107.135 68.8598 109.018 73.4406 110.505C77.4333 111.801 82.3533 112.515 87.2939 112.515C92.2345 112.515 97.1543 111.801 101.147 110.505C105.728 109.018 108.051 107.135 108.051 104.909V95.8085L89.3721 102.449C88.7029 102.687 88.0038 102.807 87.2939 102.807Z" fill="#E29898"/>
</svg>
