<svg width="155" height="160" viewBox="0 0 155 160" fill="none" xmlns="http://www.w3.org/2000/svg">
<path opacity="0.058524" fill-rule="evenodd" clip-rule="evenodd" d="M106.636 158.515C132.965 149.395 155 117.66 155 79C155 40.3401 140.615 0 101.955 0C63.2947 0 0 39.5195 0 78.1795C0 116.839 80.3078 167.635 106.636 158.515Z" fill="#E36262"/>
<path d="M73.4773 53.0304C73.4773 48.043 79.5316 44 87 44C94.4684 44 100.523 48.043 100.523 53.0304C100.523 57.474 95.7166 61.168 89.3863 61.9206V68.44H103.705C107.658 68.44 110.864 70.5804 110.864 73.2208V77.0794C117.194 77.832 122 81.526 122 85.9696C122 90.957 115.946 95 108.477 95C101.009 95 94.9545 90.957 94.9545 85.9696C94.9545 81.526 99.7607 77.832 106.091 77.0794V73.2208C106.091 72.3407 105.022 71.6272 103.705 71.6272H70.2955C68.9775 71.6272 67.9091 72.3407 67.9091 73.2208V77.0794C74.2393 77.832 79.0455 81.526 79.0455 85.9696C79.0455 90.957 72.9911 95 65.5227 95C58.0543 95 52 90.957 52 85.9696C52 81.526 56.8061 77.832 63.1364 77.0794V73.2208C63.1364 70.5804 66.3416 68.44 70.2955 68.44H84.6136V61.9206C78.2834 61.1679 73.4773 57.474 73.4773 53.0304Z" fill="#E29898"/>
</svg>
